<?xml version="1.0" encoding="UTF-8" standalone="no"?>
<!-- Created with Inkscape (http://www.inkscape.org/) -->

<svg
   xmlns:dc="http://purl.org/dc/elements/1.1/"
   xmlns:cc="http://creativecommons.org/ns#"
   xmlns:rdf="http://www.w3.org/1999/02/22-rdf-syntax-ns#"
   xmlns:svg="http://www.w3.org/2000/svg"
   xmlns="http://www.w3.org/2000/svg"
   xmlns:sodipodi="http://sodipodi.sourceforge.net/DTD/sodipodi-0.dtd"
   xmlns:inkscape="http://www.inkscape.org/namespaces/inkscape"
   width="159.29179mm"
   height="214.74431mm"
   viewBox="0 0 564.41974 760.90503"
   id="svg4254"
   version="1.1"
   inkscape:version="0.91 r13725"
   sodipodi:docname="logo.svg"
   inkscape:export-filename="/Users/natalievillasana/Desktop/newlogo.png"
   inkscape:export-xdpi="92.005997"
   inkscape:export-ydpi="92.005997">
  <defs
     id="defs4256" />
  <sodipodi:namedview
     id="base"
     pagecolor="#ffffff"
     bordercolor="#666666"
     borderopacity="1.0"
     inkscape:pageopacity="1"
     inkscape:pageshadow="2"
     inkscape:zoom="0.5894754"
     inkscape:cx="200.96528"
     inkscape:cy="408.95227"
     inkscape:document-units="px"
     inkscape:current-layer="layer1"
     showgrid="false"
     fit-margin-top="0"
     fit-margin-left="0"
     fit-margin-right="0"
     fit-margin-bottom="0"
     inkscape:window-width="1238"
     inkscape:window-height="755"
     inkscape:window-x="82"
     inkscape:window-y="0"
     inkscape:window-maximized="0"
     borderlayer="false"
     inkscape:showpageshadow="false"
     showborder="true" />
  <metadata
     id="metadata4259">
    <rdf:RDF>
      <cc:Work
         rdf:about="">
        <dc:format>image/svg+xml</dc:format>
        <dc:type
           rdf:resource="http://purl.org/dc/dcmitype/StillImage" />
        <dc:title></dc:title>
      </cc:Work>
    </rdf:RDF>
  </metadata>
  <g
     inkscape:label="Layer 1"
     inkscape:groupmode="layer"
     id="layer1"
     transform="translate(-93.642324,-115.80282)">
    <path
       style="fill:#2162ec"
       d="M 202.27009,459.97442 C 146.73438,432.5036 110.03525,391.36579 97.903677,342.98515 c -1.91739,-7.64654 -2.6316,-16.69785 -2.55454,-32.37408 0.0932,-18.95692 0.64625,-23.55209 4.29329,-35.67187 11.998033,-39.87159 39.129443,-73.24763 80.820063,-99.42181 14.30731,-8.93862 21.58922,-15.02695 36.18084,-15.02695 l -11.66973,15.28635 c -20.42787,26.75877 -38.56957,59.19486 -46.11954,93.64571 -3.92777,17.92258 -4.824,55.00552 -1.79206,74.14848 6.62504,41.8288 26.6093,82.44595 55.66969,113.14625 6.87643,7.26447 11.86199,13.20813 11.07903,13.20813 -0.78296,0 -10.47625,-4.47793 -21.54063,-9.95094 z m 339.42132,-3.34081 c 29.6356,-31.67524 49.02341,-71.04488 55.67838,-113.06263 3.03195,-19.14296 2.1357,-56.2259 -1.79206,-74.14848 -7.54997,-34.45085 -24.14318,-68.14337 -46.11954,-93.64571 L 538.5821,162.8714 c 14.59443,4.78986 27.70586,7.89841 35.38721,12.64599 52.47174,32.94278 82.57133,78.24283 85.56319,128.77309 3.19607,53.9791 -26.94438,106.3085 -81.47645,141.45825 -10.59407,6.82863 -44.60394,24.13077 -47.49462,24.16236 -0.71825,0.008 4.29023,-5.96702 11.12998,-13.27748 z M 275.52545,420.02765 c -45.7007,-23.60664 -72.38956,-63.37371 -72.38956,-107.86229 0,-15.0408 3.32075,-31.24331 9.18275,-44.80415 7.12022,-16.47158 22.90601,-36.06886 39.07694,-48.51211 8.55592,-6.58363 30.33636,-19.30219 33.1326,-19.34759 0.74062,-0.012 -1.08337,2.66781 -4.05331,5.95517 -28.20247,31.21677 -43.79514,81.29659 -38.54772,123.80582 4.11011,33.29586 15.0434,59.60943 35.35789,85.09715 4.59908,5.77028 8.15698,10.47663 7.90642,10.45852 -0.25056,-0.018 -4.60027,-2.17382 -9.66601,-4.79052 z m 201.63647,-5.68676 c 20.79932,-26.09666 31.70734,-52.8132 35.34053,-86.55793 4.61489,-42.86287 -10.71893,-91.52556 -38.54552,-122.32628 -2.96995,-3.28736 -4.79393,-5.96719 -4.05332,-5.95517 2.79624,0.0454 24.57668,12.76396 33.1326,19.34759 46.88707,36.07877 61.43239,94.42903 35.81378,143.67123 -11.16784,21.46598 -27.26525,37.97423 -51.37182,52.68292 -18.52463,11.30288 -19.91917,11.18629 -10.31625,-0.86236 z"
       id="path4867"
       inkscape:connector-curvature="0"
       sodipodi:nodetypes="ssssccssssssssssccsscssssscssscsssssssss" />
    <path
       style="fill:#2162ec"
       d="m 377.42835,837.46706 c -3.27456,-4.17844 -11.98054,-16.21594 -19.34661,-26.75 -16.64917,-23.80962 -22.8201,-31.65284 -24.90399,-31.65284 -2.42925,0 -44.94036,43.10478 -45.76961,46.40879 -0.92437,3.68296 -4.86437,5.19417 -8.06852,3.09473 -1.30076,-0.8523 -2.36502,-1.72085 -2.36502,-1.93013 0,-2.26858 57.08788,-288.22104 80.93934,-405.4241 6.08336,-29.89289 11.06066,-56.78868 11.06066,-59.76841 0,-3.90749 -0.73251,-6.81859 -2.62779,-10.44325 -3.71093,-7.09702 -4.05899,-12.3554 -1.18678,-17.92956 5.40624,-10.49199 18.25774,-12.82592 27.23283,-4.9457 6.49617,5.70372 6.83131,14.7959 0.9483,25.72729 -2.10851,3.9179 -2.43813,5.56886 -1.9593,9.81343 0.31662,2.80669 17.24485,91.45669 37.61827,197 34.17699,177.05177 48.74716,253.3038 50.47957,264.1815 0.44958,2.82282 0.26746,4.78453 -0.5338,5.75 -1.48662,1.79125 -6.51472,1.92814 -7.91283,0.21541 -0.56121,-0.6875 -4.46672,-5.75 -8.67891,-11.25 -8.58688,-11.21219 -30.09944,-37.03261 -33.16502,-39.80627 -2.22448,-2.01265 0.58801,-6.06677 -25.53389,36.80627 -9.51212,15.61195 -18.3316,28.5 -19.50295,28.5 -0.42361,0 -3.44939,-3.41872 -6.72395,-7.59716 z m 2.3148,-81.08978 c -0.17001,-11.10282 -0.62343,-20.50128 -1.00762,-20.88546 -0.38418,-0.38418 -1.95006,0.11057 -3.47972,1.09946 -3.62747,2.34506 -30.5185,29.17862 -32.71667,32.64674 -1.59421,2.51525 -1.59303,2.87105 0.0199,6 2.39414,4.64455 12.74439,20.53695 25.28638,38.8262 l 10.62923,15.5 0.78882,-26.5 c 0.43385,-14.575 0.64973,-35.58412 0.47973,-46.68694 z m 20.42202,53.93694 c 15.57827,-25.48189 21.11601,-35.89397 20.4643,-38.47705 -0.76298,-3.02411 -16.00072,-22.11978 -25.62369,-32.11118 -9.4414,-9.80286 -10.5818,-9.65738 -9.64089,1.22983 0.36165,4.18462 1.0615,23.8145 1.55523,43.62196 0.84962,34.0851 1.37481,41.48644 2.94382,41.48644 0.36988,0 5.00544,-7.0875 10.30123,-15.75 z m 61.90497,-25.09572 c -4.78391,-25.90965 -8.8915,-43.91014 -10.20528,-44.7221 -1.35594,-0.83802 -3.7146,2.35188 -12.80416,17.31663 l -8.04731,13.24881 12.68844,15.25119 c 6.97865,8.38815 14.73242,17.44812 17.23061,20.13325 3.98754,4.28594 4.58093,4.62366 4.85963,2.76585 0.17462,-1.16392 -1.50025,-11.96105 -3.72193,-23.99363 z M 328.92367,768.73245 c 0.0848,-1.38495 -15.72644,-23.06012 -19.4642,-26.68289 -2.38618,-2.31278 -3.81322,-3.05699 -4.5154,-2.35481 -2.49,2.49 -13.90303,61.49426 -12.56774,64.97398 0.59161,1.5417 3.78609,-1.31219 18.60532,-16.62162 9.8401,-10.16559 17.91401,-18.85719 17.94202,-19.31466 z m 105.82355,-15.39361 c 10.18774,-17.03143 12.94086,-22.96066 11.38492,-24.51904 -1.5202,-1.52257 -44.84565,-2.33862 -47.04289,-0.88607 -2.66153,1.75948 -0.14018,5.87587 12.62239,20.60751 7.01963,8.10264 13.1918,15.33014 13.71594,16.0611 0.52414,0.73096 1.25075,1.14499 1.61468,0.92006 0.36394,-0.22492 3.83117,-5.70753 7.70496,-12.18356 z m -81.55871,-8.2354 18.28609,-17.96078 -25.61043,-0.0392 c -27.0681,-0.0415 -34.88957,0.49644 -34.88957,2.39942 0,2.58108 21.22695,33.56136 22.99545,33.56136 0.5128,0 9.16111,-8.08235 19.21846,-17.96078 z m 85.53609,-23.6872 c 3.54528,-0.42584 5.25,-1.08719 5.25,-2.03674 0,-1.38784 -26.65969,-29.31528 -27.98453,-29.31528 -0.67294,0 -19.93567,21.08625 -24.10621,26.38823 -1.1755,1.4944 -1.90045,2.95392 -1.611,3.24337 1.50092,1.50092 39.14954,2.83774 48.45174,1.72042 z m -60.75,-1.89518 c 0,-0.72429 -25.79646,-31.21301 -27.08098,-32.00689 -1.7777,-1.09868 -33.98454,28.81437 -32.56304,30.24387 1.41773,1.4257 59.64402,3.14681 59.64402,1.76302 z m -56.46162,-15.28294 c 8.62536,-7.53244 22.46162,-22.38895 22.46162,-24.11786 0,-2.67735 -20.16102,-26.20098 -21.40522,-24.97535 -0.80189,0.78991 -7.03438,26.09612 -9.46203,38.41931 -3.29614,16.73176 -3.48082,18.5 -1.93226,18.5 0.75695,0 5.40901,-3.52175 10.33789,-7.8261 z m 57.98635,-10.86323 c 0.79689,-17.00328 0.21429,-29.97165 -1.41987,-31.60581 -2.35124,-2.35124 -21.10486,15.27356 -21.10486,19.83452 0,2.24024 19.2515,27.17641 21.14472,27.38842 0.35459,0.0397 0.9756,-6.988 1.38001,-15.61713 z m 20.34109,5.09524 c 6.1238,-5.82675 11.13418,-11.20607 11.13418,-11.95404 0,-1.3169 -16.50606,-20.97998 -20.8839,-24.87824 -3.90699,-3.47899 -4.58278,-1.08564 -4.96936,17.5993 -0.40614,19.63051 0.37968,29.82707 2.29868,29.82707 0.70742,0 6.2966,-4.76734 12.4204,-10.59409 z m 47.13418,9.13894 c 0,-1.30233 -6.10939,-32.44768 -7.54322,-38.45493 -0.55079,-2.30763 -0.83105,-2.15883 -6.59249,3.5 -3.30949,3.25054 -6.93592,7.1791 -8.05875,8.73013 l -2.04149,2.82005 3.7661,5.4682 c 8.80589,12.78577 20.46985,23.00622 20.46985,17.93655 z m -19.5897,-36.45481 c 6.64867,-6.67371 9.68091,-10.40998 9.28524,-11.44108 -0.32315,-0.84211 -2.78207,-4.59513 -5.46427,-8.34004 -2.68219,-3.7449 -8.85085,-12.43392 -13.70813,-19.30892 -17.16849,-24.30032 -22.99091,-30.10335 -28.75293,-28.65717 -1.4677,0.36837 -2.78578,1.58525 -3.13706,2.89623 -0.33321,1.24352 -0.60027,10.81094 -0.59345,21.26094 l 0.0124,19 15.60745,17.25 c 8.58409,9.4875 15.89331,17.25 16.24271,17.25 0.3494,0 5.07802,-4.45948 10.50805,-9.90996 z m -64.99048,-5.90572 c 10.68189,-9.64407 13.25778,-13.19492 14.56002,-20.07081 1.36191,-7.19093 1.31758,-31.68927 -0.062,-34.26704 -0.83394,-1.55824 -1.68203,-1.87148 -3.69741,-1.36566 -3.0477,0.76493 -37.94362,24.44932 -42.87389,29.09916 -6.07224,5.72686 -4.45889,9.65422 11.06155,26.92703 8.92384,9.93139 9.66685,9.91998 21.01174,-0.32268 z m 69.1787,-38.55199 c -2.18603,-12.82145 -4.34171,-19.46643 -7.26262,-22.38734 -2.37081,-2.37081 -2.92608,-2.47734 -9.65389,-1.85205 -3.92611,0.36489 -7.52098,1.04603 -7.98859,1.51364 -0.77867,0.77867 2.86242,6.37652 16.64715,25.59342 2.76169,3.85 5.95235,8.05482 7.09034,9.34405 l 2.06909,2.34404 0.32778,-2.71171 c 0.18027,-1.49145 -0.37289,-6.82127 -1.22926,-11.84405 z m -88.10294,-5.66281 c 16.49453,-11.09325 18.70634,-12.83379 17.92182,-14.10317 -0.89059,-1.441 -26.76253,-1.06569 -28.79113,0.41766 -1.45279,1.06231 -6.62627,18.8666 -6.62627,22.804 0,2.13302 3.40258,0.35964 17.49558,-9.11849 z m 18.00442,-21.95051 16,-0.51901 0.29391,-6.10338 c 0.55051,-11.43181 -4.16089,-26.83803 -9.11494,-29.80574 -2.21593,-1.32745 -5.0362,1.67483 -16.35373,17.40912 -9.48654,13.18875 -12.36144,18.74156 -10.3476,19.98618 0.78478,0.48502 1.89835,0.5826 2.47461,0.21684 0.57626,-0.36575 8.24775,-0.89856 17.04775,-1.18401 z m 60.92857,-4.59044 c 0.9699,-0.96989 1.53327,-3.17096 1.47175,-5.75 -0.15295,-6.41143 -1.20847,-9.13893 -3.67489,-9.49597 -4.59711,-0.66548 -21.9904,11.01876 -20.96979,14.08683 0.55782,1.67687 4.79356,2.47159 13.92293,2.61226 5.76629,0.0888 8.06992,-0.27304 9.25,-1.45312 z m -72.55542,-21.92857 c 14.907,-19.70509 14.01127,-16.85377 8.03373,-25.57317 -5.96012,-8.694 -8.79492,-11.92683 -10.45841,-11.92683 -0.6743,0 -2.12655,3.68273 -3.30482,8.38063 -2.30584,9.19367 -10.14365,46.26246 -10.14365,47.97423 0,1.51738 4.55127,-3.88882 15.87315,-18.85486 z m 48.44259,11.34081 c 3.27053,-1.73568 15.7504,-12.16396 15.44749,-12.90804 -0.53463,-1.31326 -26.28618,-31.80292 -26.91458,-31.86668 -1.01746,-0.10324 -2.17616,22.52636 -1.4897,29.09406 0.6511,6.22942 2.5436,10.88377 5.93234,14.58985 2.31597,2.53285 3.85646,2.77207 7.02445,1.09081 z M 377.4746,559.06422 c 0.70387,-3.2047 -0.18439,-9 -1.37945,-9 -2.80996,0 -3.90366,4.81006 -2.1453,9.4349 1.29929,3.4174 2.71706,3.24247 3.52475,-0.4349 z m 40.5,0.45784 c 0,-3.73032 -2.91288,-17.19963 -4.66848,-21.58732 -1.83919,-4.59657 -3.5274,-5.22291 -11.71449,-4.34615 -9.47968,1.01519 -9.68367,1.37663 -4.59723,8.14604 5.50232,7.3229 18.14728,20.32959 19.7642,20.32959 0.6688,0 1.216,-1.14397 1.216,-2.54216 z m -46.35158,-16.20784 c 3.1159,-3.35645 5.49505,-7.77319 4.64503,-8.62322 -0.79899,-0.79898 -19.29345,-0.82885 -19.29345,-0.0311 0,0.3276 0.97362,2.0151 2.16361,3.75 5.77899,8.42531 8.29769,9.41473 12.48481,4.90437 z m 6.17153,-29.25 c 0.17597,-6.875 0.0165,-18.47862 -0.35436,-25.78583 -0.56022,-11.03784 -0.90439,-13.09489 -2.03407,-12.15734 -2.34607,1.94707 -23.54485,45.14977 -23.23054,47.34339 0.39183,2.73464 3.80237,3.43585 15.79902,3.2483 l 9.5,-0.14852 0.31995,-12.5 z m 24.43964,12.09747 c 2.61777,-0.43082 5.06658,-1.09031 5.4418,-1.46552 0.37521,-0.37522 0.0986,-2.35841 -0.61464,-4.40708 -1.25623,-3.60819 -18.03212,-35.71095 -20.7446,-39.69738 -1.14022,-1.67573 -1.34215,1.67192 -1.34215,22.25 l 0,24.22251 6.25,-0.0596 c 3.4375,-0.0328 8.39181,-0.4121 11.00959,-0.84292 z m -47.39606,-25.6511 c 1.10477,-1.4045 6.19913,-10.82681 11.32078,-20.93847 l 9.31211,-18.38484 -2.94699,-5.44791 c -3.9414,-7.28618 -6.25436,-10.00236 -7.96014,-9.34779 -1.53571,0.58931 -3.37197,7.99537 -9.40253,37.92264 -2.07805,10.3125 -3.45284,18.75 -3.0551,18.75 0.39775,0 1.62709,-1.14913 2.73187,-2.55363 z m 49.79041,-9.26003 c -0.61118,-6.57602 -6.73001,-39.76405 -8.74578,-47.43634 -0.54189,-2.0625 -1.34711,-3.75 -1.7894,-3.75 -1.02765,0 -11.11876,18.15854 -11.11876,20.00778 0,3.00885 19.97374,37.99222 21.69164,37.99222 0.32756,0 0.31059,-3.06615 -0.0377,-6.81366 z M 376.83595,434.4475 c -1.09866,-2.30288 -2.12899,-2.94576 -5.11845,-3.19365 -2.90255,-0.24068 -3.7429,0.0511 -3.7429,1.29966 0,2.09272 2.55561,7.10577 5.86806,11.51071 l 2.63194,3.5 0.86845,-5.11672 c 0.64177,-3.78119 0.50941,-5.86928 -0.5071,-8 z m 10.70459,2.48921 c 2.25897,-4.36836 1.87398,-6.05629 -1.29753,-5.68891 -3.20969,0.3718 -4.92994,4.04452 -3.87086,8.26424 0.57957,2.30918 0.91926,2.53414 2.20959,1.46326 0.8386,-0.69598 2.17006,-2.51334 2.9588,-4.03859 z m -12.28193,-14.29936 c 2.87326,-2.87326 2.89214,-26.36199 0.022,-27.30866 -3.14846,-1.03845 -7.17275,26.8156 -4.05596,28.07325 2.04459,0.82501 2.53792,0.73151 4.03402,-0.76459 z m 13.1844,0.0736 c 1.63679,-1.19685 1.77446,-2.26581 1.19126,-9.25 -0.36267,-4.34322 -1.93044,-12.84676 -3.48393,-18.89676 l -2.82453,-11 -0.68906,13.51229 c -0.68795,13.49059 -0.18239,21.93148 1.51159,25.23771 1.07826,2.10449 1.86038,2.17675 4.29467,0.39676 z"
       id="path4730"
       inkscape:connector-curvature="0" />
  </g>
</svg>
