<?xml version="1.0" encoding="UTF-8" standalone="no"?>
<!-- Created with Inkscape (http://www.inkscape.org/) -->

<svg
   xmlns:dc="http://purl.org/dc/elements/1.1/"
   xmlns:cc="http://creativecommons.org/ns#"
   xmlns:rdf="http://www.w3.org/1999/02/22-rdf-syntax-ns#"
   xmlns:svg="http://www.w3.org/2000/svg"
   xmlns="http://www.w3.org/2000/svg"
   xmlns:sodipodi="http://sodipodi.sourceforge.net/DTD/sodipodi-0.dtd"
   xmlns:inkscape="http://www.inkscape.org/namespaces/inkscape"
   width="31.578506mm"
   height="39.490585mm"
   viewBox="0 0 111.89235 139.92727"
   id="svg2"
   version="1.1"
   inkscape:version="0.91 r13725"
   sodipodi:docname="plane.svg">
  <defs
     id="defs4" />
  <sodipodi:namedview
     id="base"
     pagecolor="#ffffff"
     bordercolor="#666666"
     borderopacity="1.0"
     inkscape:pageopacity="0.0"
     inkscape:pageshadow="2"
     inkscape:zoom="3.06"
     inkscape:cx="22.029658"
     inkscape:cy="86.303315"
     inkscape:document-units="px"
     inkscape:current-layer="layer1"
     showgrid="false"
     inkscape:window-width="1238"
     inkscape:window-height="755"
     inkscape:window-x="42"
     inkscape:window-y="1"
     inkscape:window-maximized="1"
     fit-margin-top="0"
     fit-margin-left="0"
     fit-margin-right="0"
     fit-margin-bottom="0" />
  <metadata
     id="metadata7">
    <rdf:RDF>
      <cc:Work
         rdf:about="">
        <dc:format>image/svg+xml</dc:format>
        <dc:type
           rdf:resource="http://purl.org/dc/dcmitype/StillImage" />
        <dc:title />
      </cc:Work>
    </rdf:RDF>
  </metadata>
  <g
     inkscape:label="Layer 1"
     inkscape:groupmode="layer"
     id="layer1"
     transform="translate(-213.02171,-311.19854)">
    <path
       style="fill:#ffffff"
       d="m 256.50991,450.53973 c -26.88363,-6.01683 -43.52637,-24.86533 -43.48813,-49.25188 0.0183,-11.65321 3.29473,-21.38653 10.93951,-32.49783 6.41927,-9.3301 25.36512,-23.57067 31.35873,-23.57067 2.40845,0 2.68989,0.36689 2.68989,3.50656 0,3.26017 -0.50941,3.83216 -7.25,8.14067 -15.10583,9.65546 -25.84732,23.66967 -29.33104,38.26764 -1.52676,6.39765 -1.60619,8.38685 -0.57897,14.5 3.11454,18.53515 15.75981,31.85089 37.66001,39.65684 4.68412,1.66957 3.41656,2.46095 -2,1.24867 z m 31.62311,-103.01456 c 1.00202,-5.8818 1.72174,-10.79296 1.59937,-10.91368 -0.72411,-0.7144 -18.54238,9.0102 -21.16259,11.54982 -2.89637,2.80726 -5.55989,3.9695 -5.55989,2.42607 0,-0.34758 0.8938,-2.07817 1.98623,-3.84575 l 1.98623,-3.2138 -2.54814,-1.16101 c -3.15254,-1.43639 -9.42425,-6.37356 -9.42429,-7.41891 -2e-5,-0.42429 1.0252,-1.23856 2.27826,-1.8095 1.75742,-0.80073 3.33014,-0.58718 6.87909,0.93408 4.58122,1.96374 4.61466,1.9637 7.85675,-0.008 1.79077,-1.08904 12.38687,-6.67472 23.54689,-12.41264 20.07938,-10.3238 24.64968,-11.85014 28.39277,-9.4823 1.25209,0.79206 1.26079,1.28026 0.0627,3.51887 -1.51265,2.82642 -3.68026,4.32974 -14.91279,10.34258 l -7.39627,3.95925 -5.38021,12.8645 c -4.77336,11.41346 -7.1823,15.3645 -9.36772,15.3645 -0.36204,0 0.16159,-4.81238 1.16361,-10.69418 z m -12.3477,-27.55582 c -4.23527,-2.8875 -7.71736,-5.55718 -7.73796,-5.93261 -0.11122,-2.02712 4.73705,-1.39659 15.46876,2.01175 l 11.99379,3.80917 -5.21676,2.68084 c -2.86921,1.47447 -5.57463,2.68085 -6.01204,2.68085 -0.4374,0 -4.26051,-2.3625 -8.49579,-5.25 z"
       id="path4201"
       inkscape:connector-curvature="0"
       sodipodi:nodetypes="ssssssssssccssscsssscsssscssccssscsss" />
  </g>
</svg>
