<?xml version="1.0" encoding="UTF-8" standalone="no"?>
<!-- Created with Inkscape (http://www.inkscape.org/) -->

<svg
   xmlns:dc="http://purl.org/dc/elements/1.1/"
   xmlns:cc="http://creativecommons.org/ns#"
   xmlns:rdf="http://www.w3.org/1999/02/22-rdf-syntax-ns#"
   xmlns:svg="http://www.w3.org/2000/svg"
   xmlns="http://www.w3.org/2000/svg"
   xmlns:sodipodi="http://sodipodi.sourceforge.net/DTD/sodipodi-0.dtd"
   xmlns:inkscape="http://www.inkscape.org/namespaces/inkscape"
   width="192.37206mm"
   height="175.68785mm"
   viewBox="0 0 681.63327 622.516"
   id="svg2"
   version="1.1"
   inkscape:version="0.91 r13725"
   sodipodi:docname="tower.svg">
  <defs
     id="defs4" />
  <sodipodi:namedview
     id="base"
     pagecolor="#ffffff"
     bordercolor="#666666"
     borderopacity="1.0"
     inkscape:pageopacity="0.0"
     inkscape:pageshadow="2"
     inkscape:zoom="0.19157951"
     inkscape:cx="375.17684"
     inkscape:cy="554.71886"
     inkscape:document-units="px"
     inkscape:current-layer="layer1"
     showgrid="false"
     fit-margin-top="0"
     fit-margin-left="0"
     fit-margin-right="0"
     fit-margin-bottom="0"
     inkscape:window-width="1238"
     inkscape:window-height="755"
     inkscape:window-x="42"
     inkscape:window-y="1"
     inkscape:window-maximized="1" />
  <metadata
     id="metadata7">
    <rdf:RDF>
      <cc:Work
         rdf:about="">
        <dc:format>image/svg+xml</dc:format>
        <dc:type
           rdf:resource="http://purl.org/dc/dcmitype/StillImage" />
        <dc:title></dc:title>
      </cc:Work>
    </rdf:RDF>
  </metadata>
  <g
     inkscape:label="Layer 1"
     inkscape:groupmode="layer"
     id="layer1"
     transform="translate(-33.874264,-184.39474)">
    <path
       style="fill:#ffffff"
       d="m 361.96185,773.33184 c -12.51328,-18.43053 -23.68891,-33.16026 -24.83473,-32.73268 -5.23949,1.95503 -46.31616,43.76525 -46.31616,47.14325 0,2.09057 -2.3154,3.80107 -5.14533,3.80107 -3.30797,0 -5.14533,-1.71512 -5.14533,-4.80297 0,-3.58131 65.11414,-328.98447 90.59465,-452.74015 2.43672,-11.83467 2.20303,-14.8247 -1.67106,-21.38303 -10.84163,-18.35342 8.74695,-36.16013 26.27386,-23.88381 6.78934,4.75543 7.71895,17.71979 1.86944,26.07114 -3.40349,4.85914 -3.41189,7.67607 -0.0727,24.36957 2.07651,10.38143 16.00649,82.54876 30.9555,160.37187 14.94903,77.8231 33.50497,173.96294 41.23545,213.64413 7.73051,39.68118 14.05545,74.12272 14.05545,76.53674 0,2.67406 -2.0106,4.38917 -5.14532,4.38917 -2.82994,0 -5.14534,-1.0315 -5.14534,-2.29221 -2e-5,-2.05928 -40.7541,-51.73374 -42.44358,-51.73374 -0.38506,0 -9.64909,15.0501 -20.58671,33.44464 -10.93763,18.39456 -21.20062,33.41368 -22.80666,33.37583 -1.60596,-0.0379 -13.15812,-15.14828 -25.67134,-33.57882 z m 20.16518,-76.56169 c -1.78851,-1.78849 -37.28348,33.2408 -37.30885,36.8194 -0.011,1.4529 8.38305,14.96236 18.65183,30.02102 l 18.67053,27.37941 0.70261,-46.40052 c 0.38646,-25.5203 0.0639,-47.03898 -0.71612,-47.81931 z m 28.00522,64.15797 c 7.95148,-13.30105 14.45724,-25.28873 14.45724,-26.63927 0,-3.42101 -31.46532,-40.50661 -34.36791,-40.50661 -1.34523,0 -1.66613,5.82745 -0.74375,13.5065 0.89226,7.42857 1.63237,29.07753 1.64466,48.10882 0.0137,20.07229 0.9735,33.57602 2.28744,32.1583 1.2458,-1.34423 8.77084,-13.32673 16.72232,-26.62774 z m 53.39599,-24.04318 c -3.72925,-19.44994 -7.51342,-35.3683 -8.40926,-35.37415 -0.89586,-0.006 -5.80129,6.99384 -10.90101,15.55473 l -9.27218,15.56529 17.00996,20.56033 c 9.35549,11.30816 17.31215,20.22215 17.68146,19.80882 0.36929,-0.4133 -2.37972,-16.66507 -6.10897,-36.11502 z m -146.01794,9.04225 15.12237,-15.65656 -11.05142,-15.75486 c -6.07826,-8.66517 -11.85049,-14.84909 -12.82718,-13.74203 -1.96063,2.22237 -12.80297,55.83982 -12.79979,63.29736 0.002,3.94651 0.50943,4.12 3.21782,1.09927 1.76873,-1.97263 10.02091,-10.63207 18.3382,-19.24318 z m 132.715,-54.07444 c 0.0669,-2.36558 -6.75152,-3.21583 -25.78764,-3.21583 -29.48825,0 -28.96475,-1.47267 -8.02361,22.57231 l 14.05714,16.14067 9.83164,-16.14067 c 5.4074,-8.87735 9.8725,-17.58777 9.92247,-19.35648 z m -93.81141,14.79281 17.87065,-18.00864 -30.37418,0 c -16.70583,0 -29.98832,0.9708 -29.51665,2.15733 1.82579,4.59311 21.51153,33.81616 22.79418,33.83746 0.74543,0.0137 9.39713,-8.08138 19.226,-17.98615 z m 91.32958,-25.04576 c 0,-1.17865 -6.35743,-8.42143 -14.12764,-16.09513 l -14.12765,-13.95215 -12.84565,14.04004 c -7.0651,7.722 -12.86348,14.64312 -12.8853,15.38017 -0.0192,0.73711 12.11614,1.6619 26.97327,2.05512 14.85712,0.39318 27.01297,-0.24918 27.01297,-1.42805 z M 367.8641,664.83978 c -7.38949,-8.84354 -13.67071,-16.07916 -13.95828,-16.07916 -1.47411,0 -32.2229,29.12684 -32.2229,30.52318 0,0.89932 13.41375,1.63512 29.8083,1.63512 l 29.8083,0 -13.43542,-16.07914 z m -20.45453,-22.90393 c 0,-2.26885 -18.73438,-24.94422 -20.79504,-25.16952 -1.53895,-0.16821 -12.72087,49.55259 -12.67506,56.36029 0.0137,2.08156 7.55052,-3.6735 16.74778,-12.78902 9.19726,-9.11551 16.72232,-17.39631 16.72232,-18.40175 z m 34.75492,-17.19448 c -1.14465,-2.98294 -3.8191,-1.58819 -11.68797,6.09558 -5.61199,5.47996 -10.20364,10.96806 -10.20364,12.19573 0,1.22771 4.92023,8.07442 10.93384,15.21496 l 10.93382,12.98281 0.75412,-21.31052 c 0.41476,-11.72079 0.0862,-23.05113 -0.73017,-25.17856 z m 21.63795,34.51956 11.15621,-11.36739 -11.02328,-13.07292 c -6.06281,-7.19015 -11.99975,-13.07297 -13.19324,-13.07297 -1.19345,0 -2.16994,10.99813 -2.16994,24.4403 0,13.44218 0.91667,24.44031 2.037,24.44031 1.12037,0 7.05731,-5.1153 13.19325,-11.36733 z m 46.51369,10.20761 c 0,-1.15329 -4.19653,-22.84402 -6.68728,-34.56458 l -1.30452,-6.13866 -7.58106,7.26314 c -4.16964,3.99475 -7.58112,8.29885 -7.58112,9.56469 0,3.26612 18.1657,25.03513 20.89122,25.03513 1.24453,0 2.26276,-0.52185 2.26276,-1.15972 z m -29.54612,-75.79979 c -15.89064,-22.63121 -21.28193,-28.51972 -26.11154,-28.51972 -5.90893,0 -6.08628,0.6195 -6.08628,21.26019 l 0,21.26017 15.83079,17.54033 15.83077,17.54033 10.28077,-10.28081 10.28081,-10.28077 -20.02532,-28.51972 z m -49.68762,28.0789 c 8.80671,-8.32695 9.54832,-10.16556 9.85817,-24.44031 0.72817,-33.54835 3.56655,-32.35831 -26.96663,-11.30631 -29.98609,20.67484 -29.03732,17.17804 -10.58941,39.02862 11.21783,13.28694 10.02472,13.42829 27.69787,-3.282 z m 63.32392,-36.1673 c -3.49295,-19.83981 -5.91636,-22.88826 -16.83027,-21.17117 l -8.29973,1.30581 13.25629,18.98643 c 7.29097,10.44249 13.60169,18.64099 14.02385,18.21882 0.42214,-0.42214 -0.5454,-8.22509 -2.15014,-17.33989 z m -83.7809,-5.53923 c 8.13604,-5.46615 14.79281,-10.47418 14.79281,-11.12895 0,-0.65476 -6.85421,-1.19047 -15.23157,-1.19047 -15.12403,0 -15.24346,0.0593 -16.91439,8.36117 -0.92553,4.59863 -2.29926,10.53209 -3.0527,13.18549 -1.57096,5.53245 -1.54662,5.52147 20.40585,-9.22724 z m 16.28956,-20.03741 13.93923,0 0,-11.6675 c 0,-10.61957 -5.68972,-24.3498 -10.09036,-24.3498 -2.62974,0 -25.92694,32.36029 -25.92694,36.01304 0,1.79483 1.73399,2.46202 4.06942,1.56583 2.23815,-0.85888 10.34206,-1.56157 18.00865,-1.56157 z m 60.24718,-10.13882 c 0,-4.16138 -1.11715,-8.2566 -2.48254,-9.10046 -3.24302,-2.00432 -23.5844,11.46198 -21.76373,14.40788 0.76777,1.24229 6.53729,2.25873 12.82112,2.25873 10.92854,0 11.42515,-0.32886 11.42515,-7.56615 z m -67.74083,-23.94308 6.68848,-9.64157 -6.97018,-10.53263 c -3.83361,-5.79296 -7.75171,-9.7606 -8.70694,-8.81696 -0.95524,0.94361 -4.22498,14.07397 -7.26616,29.17854 l -5.52935,27.46285 7.54783,-9.00432 c 4.15133,-4.95238 10.55767,-13.34306 14.23632,-18.64591 z m 49.46644,14.08555 8.54421,-7.13304 -13.78671,-16.32304 -13.78673,-16.32306 -0.7667,17.28745 c -0.55111,12.42596 0.36991,19.02216 3.27512,23.45608 5.09933,7.78254 6.11437,7.72329 16.52081,-0.96439 z m 9.92543,-32.74327 c -3.17492,-12.65169 -3.37615,-12.84869 -12.23234,-11.97457 -4.95239,0.4888 -9.42265,1.29303 -9.93395,1.78715 -0.51127,0.49415 4.69838,7.30107 11.57699,15.12658 6.87866,7.82548 12.80152,12.80975 13.16197,11.07618 0.36042,-1.73363 -0.79727,-8.94053 -2.57267,-16.01534 z m -37.95899,9.77612 c 0,-4.77779 -0.82945,-6.11674 -2.657,-4.2892 -1.46135,1.46136 -1.91636,4.58714 -1.01109,6.9462 2.38304,6.21012 3.66809,5.27929 3.66809,-2.657 z m -3.12221,-15.70562 c 3.65828,-5.50968 3.48955,-5.64749 -6.91395,-5.64749 l -10.66378,0 4.27643,6.52666 c 4.8587,7.41534 7.9287,7.21239 13.3013,-0.87917 z m 3.12221,-39.5209 c 0,-14.38546 -0.47949,-25.67305 -1.06553,-25.08349 -2.25926,2.27281 -21.50407,39.95873 -23.20985,45.4504 -1.7015,5.47793 -1.09847,5.78851 11.23868,5.78851 l 13.0367,0 0,-26.15542 z m 30.87197,23.52474 c 0,-1.44686 -5.19451,-12.15557 -11.54337,-23.79716 l -11.54334,-21.16645 -0.0337,23.79713 -0.0335,23.79716 11.57698,0 c 6.36734,0 11.57699,-1.18381 11.57699,-2.63068 z m -43.55357,-41.46607 10.52984,-20.94278 -4.62981,-8.59703 c -2.5464,-4.72838 -5.37348,-7.74939 -6.28241,-6.71339 -0.90892,1.03604 -3.6178,12.30297 -6.01972,25.03767 -2.40193,12.73467 -4.95719,25.17994 -5.67839,27.65613 -2.99173,10.27189 2.207,3.19685 12.08049,-16.4406 z m 36.04065,-13.94832 c -2.87656,-15.17454 -5.62537,-27.98537 -6.1085,-28.46854 -0.48317,-0.48313 -3.33478,3.9582 -6.33688,9.86968 l -5.45844,10.74808 10.77887,19.94911 c 5.92838,10.97201 11.1335,18.94623 11.56695,17.72045 0.43341,-1.22579 -1.56547,-14.64423 -4.442,-29.81878 z M 380.8542,400.49853 c 0,-6.03552 -1.13606,-7.718 -5.21141,-7.718 -4.96223,0 -5.02058,0.36899 -1.22025,7.718 2.19512,4.24488 4.54024,7.71799 5.21138,7.71799 0.67117,0 1.22028,-3.47311 1.22028,-7.71799 z m 10.29066,-2.57266 c 2.19786,-4.10675 1.95649,-5.14534 -1.19583,-5.14534 -2.23439,0 -3.9495,2.23439 -3.9495,5.14534 0,2.82992 0.53813,5.14532 1.19583,5.14532 0.6577,0 2.43496,-2.3154 3.9495,-5.14532 z m -10.3689,-28.94249 c -0.0881,-18.0845 -3.4281,-16.07085 -6.40106,3.85899 -1.53389,10.28262 -1.16473,12.22017 2.32821,12.22017 3.38525,0 4.13665,-2.96647 4.07285,-16.07916 z m 12.69458,9.00432 c -0.13583,-3.89113 -1.73483,-12.86332 -3.55337,-19.93813 l -3.3064,-12.86332 -0.30562,19.93813 c -0.24753,16.14355 0.42883,19.93816 3.55338,19.93816 2.55458,0 3.77551,-2.39144 3.61201,-7.07484 z m 287.62528,184.37569 c -28.65725,-14.52626 -37.36798,-16.71636 -34.25864,-8.61349 3.38173,8.81261 -6.09654,5.03226 -37.86067,-15.10046 -48.8476,-30.96061 -44.76688,-29.46942 -47.23954,-17.26209 l -2.08261,10.28143 -49.63371,-41.46369 c -27.29855,-22.80503 -49.28368,-41.81368 -48.85589,-42.2415 0.42782,-0.42779 12.16265,3.18878 26.0774,8.03687 13.91476,4.84805 26.31993,8.81467 27.56708,8.81467 1.24712,0 1.56484,-3.51348 0.70597,-7.80778 l -1.56155,-7.80778 20.27767,9.36589 c 39.0349,18.02951 52.92517,24.25832 54.09598,24.25832 0.64919,0 2.38938,-3.46819 3.86706,-7.7071 1.81634,-5.21036 3.76449,-7.08557 6.01373,-5.78851 1.82984,1.05522 28.05595,24.99911 58.28024,53.20854 30.22423,28.20947 56.05302,52.23172 57.39724,53.38277 5.97592,5.11726 -4.47481,0.79669 -32.78976,-13.55609 z m -644.886742,1.85252 c 2.071907,-1.9282 33.288441,-27.57381 69.370062,-56.99024 l 65.60294,-53.48441 0.79846,9.39592 c 0.87779,10.32929 2.04873,11.05674 9.56293,5.9413 9.2212,-6.2776 75.82285,-40.61239 75.82285,-39.08858 0,0.82147 -3.47308,9.15334 -7.71799,18.51522 -4.24488,9.36195 -7.71799,17.81346 -7.71799,18.78117 0,0.96771 15.62893,-6.18222 34.73097,-15.88875 19.10203,-9.70653 34.73095,-17.12804 34.73095,-16.49224 0,1.76733 -102.29504,83.86262 -106.51509,85.48201 -2.72286,1.04482 -3.50744,-0.33026 -2.97194,-5.20863 0.40018,-3.64553 -0.40458,-6.62826 -1.78833,-6.62826 -1.83673,0 -71.17935,36.89231 -95.08588,50.58851 -1.00895,0.57804 -0.25384,-4.20056 1.6777,-10.6191 1.93171,-6.41857 2.50351,-11.67011 1.27066,-11.67011 -1.23284,0 -17.94188,6.9462 -37.131209,15.43599 -36.655508,16.21723 -40.767436,17.63344 -34.639093,11.9302 z M 236.47417,340.15439 c -39.08248,-13.15936 -73.23459,-25.20653 -75.89359,-26.77151 -4.59715,-2.70568 -4.55033,-2.92526 0.95401,-4.47287 3.18366,-0.89512 5.76401,-2.36076 5.7341,-3.25695 -0.0299,-0.8962 -19.19153,-12.52244 -42.58134,-25.83611 -40.477681,-23.04023 -46.329225,-28.36228 -31.328379,-28.49354 2.476207,-0.022 4.502177,-0.94948 4.502177,-2.06178 0,-1.11232 -12.156617,-11.06454 -27.014676,-22.11607 -14.858067,-11.05154 -27.629208,-21.08803 -28.380315,-22.30332 -0.751082,-1.21528 4.169909,-0.59131 10.935538,1.38664 6.765629,1.97794 20.983882,5.86751 31.596129,8.64349 70.747936,18.50642 120.159746,32.05965 123.362766,33.83735 2.77667,1.54108 1.21222,3.12595 -6.10268,6.1823 -5.41012,2.26049 -10.85289,4.10998 -12.09504,4.10998 -6.66137,0 0.70355,5.45646 26.71578,19.79297 42.59292,23.47485 41.87461,22.68719 24.28176,26.62431 -8.06631,1.80515 -14.6236,3.96616 -14.57171,4.80223 0.0519,0.83607 18.03493,12.40202 39.96235,25.70216 32.68321,19.82409 47.30812,29.75105 41.77724,28.35721 -0.43726,-0.11005 -32.7716,-10.9671 -71.85412,-24.12649 z m 224.68625,17.07895 c 4.64787,-3.98635 16.844,-13.95717 27.10252,-22.15743 10.25849,-8.20025 18.6518,-15.93682 18.6518,-17.19242 0,-1.25557 -4.05194,-2.28288 -9.00432,-2.28288 -4.95239,0 -8.97598,-0.86828 -8.94132,-1.92951 0.0349,-1.0612 12.70029,-10.28174 28.14588,-20.49007 l 28.08287,-18.56059 -2.39434,-8.34863 c -1.31691,-4.59174 -1.53729,-9.16285 -0.48976,-10.15803 2.21137,-2.10077 166.15036,-71.71904 168.88601,-71.71904 1.0068,0 -14.73469,14.01807 -34.98113,31.15124 -20.24641,17.13318 -37.19757,32.18325 -37.66924,33.44464 -0.47167,1.26136 2.13316,2.29339 5.78851,2.29339 3.65533,0 6.64603,0.87909 6.64603,1.95354 0,1.52648 -30.07475,21.44747 -67.72843,44.86208 -1.92897,1.19948 -0.86502,3.94415 3.2106,8.28245 l 6.09556,6.48844 -7.44932,2.86442 c -36.50296,14.03615 -129.70799,48.74629 -130.89539,48.74629 -0.82896,0 2.29561,-3.26156 6.94347,-7.24789 z"
       id="path4233"
       inkscape:connector-curvature="0" />
  </g>
</svg>
