<?xml version="1.0" encoding="UTF-8" standalone="no"?>
<!-- Created with Inkscape (http://www.inkscape.org/) -->

<svg
   xmlns:dc="http://purl.org/dc/elements/1.1/"
   xmlns:cc="http://creativecommons.org/ns#"
   xmlns:rdf="http://www.w3.org/1999/02/22-rdf-syntax-ns#"
   xmlns:svg="http://www.w3.org/2000/svg"
   xmlns="http://www.w3.org/2000/svg"
   xmlns:sodipodi="http://sodipodi.sourceforge.net/DTD/sodipodi-0.dtd"
   xmlns:inkscape="http://www.inkscape.org/namespaces/inkscape"
   width="159.29179mm"
   height="214.74431mm"
   viewBox="0 0 564.41974 760.90503"
   id="svg4254"
   version="1.1"
   inkscape:version="0.91 r13725"
   sodipodi:docname="wifi.svg">
  <defs
     id="defs4256" />
  <sodipodi:namedview
     id="base"
     pagecolor="#ffffff"
     bordercolor="#666666"
     borderopacity="1.0"
     inkscape:pageopacity="0.0"
     inkscape:pageshadow="2"
     inkscape:zoom="0.41799165"
     inkscape:cx="231.35768"
     inkscape:cy="344.34567"
     inkscape:document-units="px"
     inkscape:current-layer="layer1"
     showgrid="false"
     fit-margin-top="0"
     fit-margin-left="0"
     fit-margin-right="0"
     fit-margin-bottom="0"
     inkscape:window-width="1238"
     inkscape:window-height="755"
     inkscape:window-x="43"
     inkscape:window-y="0"
     inkscape:window-maximized="0" />
  <metadata
     id="metadata4259">
    <rdf:RDF>
      <cc:Work
         rdf:about="">
        <dc:format>image/svg+xml</dc:format>
        <dc:type
           rdf:resource="http://purl.org/dc/dcmitype/StillImage" />
        <dc:title></dc:title>
      </cc:Work>
    </rdf:RDF>
  </metadata>
  <g
     inkscape:label="Layer 1"
     inkscape:groupmode="layer"
     id="layer1"
     transform="translate(-93.642324,-115.80282)">
    <path
       style="fill:#ffffff"
       d="m 266.74662,875.71876 c -5.88289,-2.42439 -9.35767,-6.19009 -9.35767,-10.14114 0,-1.9646 17.52843,-79.31792 38.95208,-171.89626 21.42364,-92.57834 44.52091,-192.45454 51.32727,-221.94711 14.27977,-61.87548 14.66231,-63.21509 18.66332,-65.35635 2.89832,-1.55115 2.98821,-3.68535 2.59552,-61.63262 l -0.40676,-60.02585 -5.06871,-1.70625 c -22.74167,-7.65543 -30.51554,-36.91416 -14.71303,-55.37585 16.5937,-19.38599 46.2449,-15.79243 58.32243,7.06834 8.95814,16.95631 -0.29811,41.62185 -17.9255,47.76678 l -4.29519,1.49732 0,59.7625 0,59.76251 3.89473,3.4226 c 3.48297,3.06073 6.02129,12.62487 24.00874,90.46258 11.06271,47.87201 34.48951,149.1437 52.05956,225.04823 17.57005,75.90452 31.94554,139.95517 31.94554,142.33479 0,10.49805 -16.11788,15.85996 -25.92031,8.62288 -3.44718,-2.54505 -5.06893,-5.87825 -7.56227,-15.54286 -1.74571,-6.76666 -3.53854,-13.31013 -3.9841,-14.54103 -0.67843,-1.87426 -14.43546,-0.27947 -84.64313,9.81233 -82.54986,11.86589 -87.71876,12.92624 -87.71876,17.99458 0,3.71779 -14.37032,7.00153 -20.17376,4.60988 z m 112.64302,-29.45861 c 42.73695,-6.08333 77.99981,-11.35687 78.36191,-11.71895 0.36209,-0.36211 0.29494,-1.02178 -0.14921,-1.46594 -1.76421,-1.76421 -151.06038,-34.97145 -152.10088,-33.83109 -1.02043,1.11841 -13.94813,55.43322 -13.92727,58.5145 0.005,0.73628 2.2822,0.93895 5.06049,0.45038 2.77829,-0.48856 40.01802,-5.86558 82.75498,-11.9489 z m 68.56399,-54.3221 c -3.84094,-16.44226 -7.21916,-30.13065 -7.50719,-30.41868 -1.02217,-1.02217 -131.01489,26.09708 -132.5432,27.65135 -1.04036,1.05802 -0.78339,1.88255 0.77714,2.49364 1.28228,0.50213 34.50514,8.29524 73.82857,17.31804 47.70565,10.94608 71.65205,15.81367 71.96265,14.62785 0.25604,-0.97746 -2.67705,-15.22995 -6.51797,-31.6722 z m -74.44945,-23.57216 c 34.37081,-6.98909 63.37684,-13.25407 64.45785,-13.92217 1.081,-0.66809 1.50481,-1.67538 0.9418,-2.23839 -0.56302,-0.56302 -26.92717,-7.50675 -58.58701,-15.4305 -49.87835,-12.48344 -57.66091,-14.06998 -58.294,-11.88369 -0.40185,1.38771 -3.25721,13.71397 -6.34525,27.39169 -3.08804,13.67771 -5.90374,25.74286 -6.25712,26.81143 -0.35338,1.06857 -0.13988,1.951 0.47442,1.96096 0.61431,0.009 29.23851,-5.70023 63.60931,-12.68933 z m 62.62763,-26.14484 c 0,-0.83226 -2.79771,-13.52657 -6.21714,-28.20959 -3.41943,-14.68299 -6.21715,-26.94149 -6.21715,-27.24108 0,-1.68951 -26.68557,5.2188 -91.31428,23.63924 -4.488,1.27917 -8.16,3.19074 -8.16,4.24794 0,1.22791 19.22779,6.77276 53.23428,15.35155 55.67645,14.04544 58.67429,14.66938 58.67429,12.21194 z m -61.5547,-49.91713 c 24.87909,-6.91525 45.78891,-13.09986 46.46628,-13.74358 0.67738,-0.64373 0.32766,-1.90194 -0.77714,-2.79604 -1.86082,-1.50595 -71.28781,-22.83448 -78.10026,-23.99303 -2.72196,-0.46291 -3.65128,2.08536 -8.88069,24.35156 -6.12296,26.07072 -6.58475,28.75428 -4.9482,28.75428 0.55291,0 21.36091,-5.65794 46.24001,-12.57319 z m 44.45756,-25.35211 c 0,-0.98195 -10.87565,-46.57713 -11.58907,-48.58615 -0.78156,-2.20084 -62.93102,15.52516 -64.87097,18.50222 -0.69963,1.07365 -1.0932,3.29768 -0.87458,4.9423 0.32904,2.47536 6.68655,4.91846 36.92319,14.18912 35.7089,10.94845 40.41143,12.22297 40.41143,10.95251 z M 375.89871,619.0476 c 21.27819,-5.9915 29.13955,-8.83642 29.14286,-10.54632 0.005,-2.39825 -47.60922,-29.05425 -49.14836,-27.51509 -0.44088,0.44086 -2.87026,9.78697 -5.39863,20.7691 -2.52837,10.98215 -4.97461,21.19153 -5.43608,22.68753 -0.46147,1.49601 -0.26732,2.74016 0.43142,2.76478 0.69876,0.0247 14.38271,-3.64736 30.40879,-8.16 z m 26.05876,-24.1362 c 0.0685,-4.00686 -24.22179,-105.78922 -25.02867,-104.87612 -0.76527,0.86602 -18.24257,75.59182 -19.10557,81.68765 -0.17332,1.22426 40.48605,24.24805 42.94858,24.32008 0.64114,0.0188 1.17468,-0.49047 1.18566,-1.13161 z M 200.56886,408.93759 C 145.03315,381.46677 108.33402,340.32896 96.202446,291.94832 c -1.91739,-7.64654 -2.6316,-16.69785 -2.55454,-32.37408 0.0932,-18.95692 0.64625,-23.55209 4.29329,-35.67187 11.998034,-39.87159 39.129444,-73.24763 80.820064,-99.42181 12.74044,-7.99869 14.54158,-8.67774 23.01731,-8.67774 l 9.19528,0 -7.70148,8.93714 c -21.97636,25.50234 -38.56957,59.19486 -46.11954,93.64571 -3.92777,17.92258 -4.824,55.00552 -1.79206,74.14848 6.62504,41.8288 26.6093,82.44595 55.66969,113.14625 6.87643,7.26447 11.86199,13.20813 11.07903,13.20813 -0.78296,0 -10.47625,-4.47793 -21.54063,-9.95094 z m 339.42132,-3.34081 c 29.6356,-31.67524 49.02341,-71.04488 55.67838,-113.06263 3.03195,-19.14296 2.1357,-56.2259 -1.79206,-74.14848 -7.54997,-34.45085 -24.14318,-68.14337 -46.11954,-93.64571 l -7.70149,-8.93714 9.19528,0 c 8.47574,0 10.27688,0.67905 23.01733,8.67774 52.47174,32.94278 82.57133,78.24283 85.56319,128.77309 3.19607,53.9791 -26.94438,106.3085 -81.47645,141.45825 -10.59407,6.82863 -44.60394,24.13077 -47.49462,24.16236 -0.71825,0.008 4.29023,-5.96702 11.12998,-13.27748 z M 273.82422,368.99082 c -45.7007,-23.60664 -72.38956,-63.37371 -72.38956,-107.86229 0,-15.0408 3.32075,-31.24331 9.18275,-44.80415 7.12022,-16.47158 22.90601,-36.06886 39.07694,-48.51211 8.55592,-6.58363 30.33636,-19.30219 33.1326,-19.34759 0.74062,-0.012 -1.08337,2.66781 -4.05331,5.95517 -28.20247,31.21677 -43.79514,81.29659 -38.54772,123.80582 4.11011,33.29586 15.0434,59.60943 35.35789,85.09715 4.59908,5.77028 8.15698,10.47663 7.90642,10.45852 -0.25056,-0.018 -4.60027,-2.17382 -9.66601,-4.79052 z m 201.63647,-5.68676 c 20.79932,-26.09666 31.70734,-52.8132 35.34053,-86.55793 4.61489,-42.86287 -10.71893,-91.52556 -38.54552,-122.32628 -2.96995,-3.28736 -4.79393,-5.96719 -4.05332,-5.95517 2.79624,0.0454 24.57668,12.76396 33.1326,19.34759 46.88707,36.07877 61.43239,94.42903 35.81378,143.67123 -11.16784,21.46598 -27.26525,37.97423 -51.37182,52.68292 -18.52463,11.30288 -19.91917,11.18629 -10.31625,-0.86236 z"
       id="path4867"
       inkscape:connector-curvature="0" />
  </g>
</svg>
